<svg xmlns="http://www.w3.org/2000/svg" xmlns:v="https://vecta.io/nano" viewBox="399.65 399.65 1200.6 1200.67"><path d="M994.062 399.684l9.703-.021C1068.762 399.3 1132.44 410.159 1194 431l3.285 1.1c39.404 13.277 77.21 31.297 112.715 52.9l2.783 1.675c12.108 7.292 23.797 15 35.217 23.325l2.32 1.676c19.507 14.094 38.118 29.263 55.766 45.629l5.766 5.266c5.972 5.392 11.761 10.939 17.461 16.617l1.993 1.979c3.85 3.862 7.508 7.837 11.071 11.965 2.274 2.617 4.635 5.144 6.998 7.681 4.237 4.592 8.279 9.297 12.195 14.168l5.422 6.633c8.122 9.82 15.696 19.952 23.008 30.387l1.641 2.341c17.767 25.445 33.374 51.958 47.359 79.659l1.5 2.967c37.246 74.237 59.452 160.542 59.703 243.677l.021 4.354.026 13.814.001 2.377c.007 23.079-.257 45.888-3.251 68.811l-.504 4.173c-8.008 66.308-27.759 129.641-56.496 189.827l-1.276 2.689c-6.79 14.233-14.631 27.786-22.724 41.311l-1.489 2.509c-7.028 11.832-14.596 23.234-22.511 34.491l-1.634 2.33c-7.253 10.305-14.87 20.222-22.917 29.917l-6.136 7.565c-3.834 4.685-7.865 9.164-11.961 13.621-3.776 4.121-7.483 8.305-11.043 12.613l-1.621 1.953-1.426 1.75C1434 1416 1434 1416 1432 1416l-.625 1.609c-1.955 3.398-4.596 5.901-7.375 8.641l-1.656 1.68c-4.09 4.07-4.09 4.07-6.344 4.07v2c-1.258 1.27-1.258 1.27-3.125 2.813-3.385 2.87-6.655 5.828-9.886 8.868-6.451 6.067-13.071 11.787-19.989 17.32l-3.57 2.949c-25.974 21.462-54.087 40.501-83.43 57.051l-2.57 1.464c-65.782 37.337-138.827 61.282-213.743 71.286l-2.259.306c-24.819 3.326-49.563 4.323-74.574 4.262l-6.982-.011c-22.092-.036-43.936-.421-65.873-3.307l-4.318-.536c-20.098-2.505-39.935-5.924-59.682-10.464l-3.5-.804c-69.78-16.271-138.49-45.242-197.5-86.196l-2.221-1.53c-10.476-7.225-20.807-14.561-30.779-22.47l-2.625-2.074L622 1467l-2.711-2.18c-5.375-4.351-10.603-8.818-15.707-13.484l-6.406-5.668c-13.761-12.017-27.595-24.663-39.414-38.625-1.852-2.148-3.77-4.229-5.7-6.307-4.732-5.1-9.274-10.296-13.636-15.72l-5.383-6.594C495.092 1332.469 463.841 1279.461 442 1224l-1.314-3.28c-17.933-44.865-29.871-91.748-36.436-139.595l-.306-2.199c-.73-5.3-1.368-10.607-1.944-15.926l-.286-2.625c-1.909-18.293-2.058-36.549-2.03-54.919l-.021-9.869c-.123-22.38.812-44.342 3.336-66.587l.31-2.794a434.57 434.57 0 0 1 1.877-14.394l.307-2.111C409.923 879.553 416.977 850.087 426 821l.654-2.118c6.203-20.024 13.517-39.397 21.912-58.602l3.684-8.549c4.336-10.089 9.316-19.775 14.524-29.438l3.441-6.565c18.539-35.856 42.001-70.177 68.437-100.675 3.108-3.586 6.127-7.225 9.098-10.926 3.172-3.91 6.481-7.515 10.133-10.98 1.82-1.844 3.491-3.726 5.176-5.691 4.259-4.905 8.828-9.491 13.429-14.072l4.33-4.337c4.684-4.687 9.426-9.254 14.459-13.567 2.4-2.059 4.713-4.207 7.035-6.353 5.402-4.921 10.989-9.553 16.688-14.125l3.359-2.738c32.398-26.324 67.686-49.221 104.999-67.934l6.806-3.484c57.454-29.69 121.024-47.929 184.961-56.656l2.179-.301c5.224-.712 10.454-1.328 15.696-1.886l2.621-.283c18.138-1.881 36.227-2.061 54.441-2.033zM936 454l-2.141.25c-69.756 8.151-137.815 29.951-199.117 64.219l-7.961 4.402c-25.138 13.958-48.882 30.586-71.131 48.783l-4.604 3.709c-5.893 4.739-11.497 9.712-17.027 14.863-2.111 1.963-4.276 3.841-6.473 5.707-5.994 5.224-11.546 10.917-17.156 16.545l-5.858 5.851c-6.057 6.053-12.024 12.107-17.533 18.67l-2.852 3.246c-7.263 8.328-14.017 16.975-20.663 25.801-2.058 2.705-4.185 5.354-6.298 8.016C537 700.359 520.793 729.423 506 759l-1.531 3.021C496.119 778.547 489.317 795.616 483 813l-.723 1.988C470.652 847.069 462.064 880.246 457 914l-.553 3.644c-1.308 8.768-2.444 17.548-3.447 26.356l-.364 3.144c-4.188 38.407-3.244 78.527 1.364 116.856l.454 3.788C461.857 1127.405 478.92 1184.926 505 1239l1.416 2.96c21.753 45.279 50.575 88.53 84.986 125.231 1.914 2.07 3.748 4.157 5.574 6.301 4.948 5.678 10.315 10.949 15.648 16.262l5.417 5.423c5.817 5.82 11.659 11.521 17.959 16.822l3.352 2.922c7.458 6.46 15.049 12.701 22.874 18.711l5.157 4.019c74.127 57.458 164.783 94.243 404.688 107.281 19.567-2.49 38.754-6.353 57.93-10.934l3.039-.705c68.007-15.865 134.225-47.265 190.099-88.908l5.069-3.735c23.11-17.046 44.465-36.282 64.793-56.527l2.392-2.377c4.742-4.755 9.229-9.659 13.608-14.748l4.375-4.812c4.73-5.25 9.21-10.672 13.625-16.187l1.257-1.561c21.188-26.361 39.727-54.665 55.743-84.439l1.458-2.708c7.073-13.202 13.648-26.523 19.542-40.292l1.244-2.852c21.963-50.578 35.604-105.267 40.756-160.148l.312-3.206c6.719-72.042-1.327-144.693-22.312-213.794l-1.053-3.473C1503.859 768.316 1470.116 705.08 1426 653l-2.676-3.199c-4.914-5.862-9.904-11.637-15.059-17.289l-3.615-4.107c-5.43-6.376-11.346-12.252-17.274-18.16l-5.417-5.423c-5.817-5.82-11.657-11.522-17.959-16.822l-3.316-2.887c-14.028-12.134-28.525-23.424-43.684-34.113l-2.051-1.449c-75.024-52.828-162.663-85.644-253.762-95.801l-2.255-.252c-19.241-2.123-38.331-2.738-57.683-2.748l-3.756-.002c-20.654.018-40.989.786-61.494 3.252z" fill="#26a4e3"/><path d="M1267.445 765.508c7.859 6.235 9.789 14.122 11.258 23.695.95 12.154-.257 23.986-1.641 36.047l-.327 2.892c-3.253 28.638-7.301 57.173-11.424 85.697l-.913 6.343c-11.548 80.342-25.132 160.445-44.03 267.82l-.977 5.442-9.615 50.235-.703 3.353c-3.827 17.671-10.223 38.359-26.074 48.968-11.395 6.64-24.292 6.543-36.875 3.313-20.478-6.261-36.866-18.035-54.125-30.312-13.443-9.601-13.443-9.601-27.312-18.562-12.184-7.441-23.879-15.666-35.673-23.704l-11.471-7.792-1.799-1.22-3.546-2.404-20.322-13.818-2.463-1.684-4.968-3.398-17.143-11.579-11.566-7.756-5.786-3.869c-38.439-25.64-38.439-25.64-41.949-42.215-1.021-11.641 4.252-20.375 11.424-29.168 5.107-5.936 10.77-11.384 16.342-16.879l6.885-6.838 4.447-4.416 2.043-2.03a232.54 232.54 0 0 1 12.045-11.067c1.849-1.634 3.587-3.341 5.314-5.102 2.334-2.374 4.727-4.609 7.25-6.781 4.005-3.483 7.891-7.075 11.75-10.719l4.203-3.953 2.15-2.025 10.396-9.771 2.01-1.887 12.303-11.363c3.706-3.381 7.3-6.826 10.813-10.406 1.73-1.697 3.533-3.269 5.375-4.844 4.348-3.742 8.339-7.805 12.344-11.906 2.146-2.153 4.389-4.148 6.695-6.129 5.431-4.7 10.378-9.868 15.383-15.014l2.195-2.229 1.972-2.023C1073 955 1073 955 1075 955v-2c1.431-1.412 1.431-1.412 3.434-3.066 4.78-4.066 9.205-8.424 13.629-12.871l2.314-2.303c4.749-4.757 9.244-9.663 13.623-14.76l6.398-7.117c2.823-3.319 2.86-5.576 2.602-9.883-1.207-3.205-1.207-3.205-4-5-10.938-1.65-19.783 5.271-28.562 10.938l-2.833 1.816-28.913 19.109-32.287 21.373-61.533 41.124-16.259 10.898-21.555 14.494-7.703 5.203L897 1034l-18.986 12.823-7.502 5.068-21.727 14.621-1.776 1.193c-27.378 18.28-53.996 25.176-86.423 18.725-35.466-7.519-70.993-17.85-104.961-30.492l-2.618-.973c-8.132-3.169-16.992-6.776-22.632-13.652l-1.914-2.262c-3.235-4.541-3.24-9.698-2.461-15.051 4.488-11.018 15.601-17.501 25.668-22.754l2.514-1.315c8.118-4.185 16.431-7.824 24.853-11.347l13.731-5.806 2.84-1.203 28.769-12.512 41.875-18.25 2.722-1.173 2.743-1.182L815.5 929.5l55.468-24.011 25.893-11.204 148.634-63.247 7.952-3.297 116.317-46.88 6.23-2.406c12.376-4.768 24.797-9.154 37.506-12.956l3.31-.99c16.412-4.759 35.155-8.547 50.635.998z" fill="#24a2e0"/></svg>