<?xml version="1.0" standalone="no"?>
<!DOCTYPE svg PUBLIC "-//W3C//DTD SVG 20010904//EN"
 "http://www.w3.org/TR/2001/REC-SVG-20010904/DTD/svg10.dtd">
<svg version="1.0" xmlns="http://www.w3.org/2000/svg"
 width="50.000000pt" height="50.000000pt" viewBox="0 0 50.000000 50.000000"
 preserveAspectRatio="xMidYMid meet">
<metadata>
Created by potrace 1.16, written by Peter Selinger 2001-2019
</metadata>
<g transform="translate(0.000000,50.000000) scale(0.100000,-0.100000)"
fill="#000000" stroke="none">
<path d="M173 431 c-117 -53 -117 -223 0 -284 38 -19 45 -31 27 -42 -5 -3 -14
-15 -20 -25 -9 -16 -4 -23 27 -44 l37 -25 64 87 c108 147 118 180 83 258 -19
41 -66 84 -93 84 -21 0 -44 -53 -27 -59 32 -10 59 -51 59 -88 0 -43 -5 -52
-40 -76 -37 -26 -77 -21 -111 12 -39 40 -37 72 10 154 22 37 37 67 33 67 -4 0
-26 -9 -49 -19z"/>
</g>
</svg>
